<svg width="14" height="14" viewBox="0 0 14 14" fill="none" xmlns="http://www.w3.org/2000/svg">
<path fill-rule="evenodd" clip-rule="evenodd" d="M11.1685 0.651997C12.5423 0.0796096 13.9204 1.45776 13.348 2.83148L9.39901 12.3091C8.62671 14.1626 5.91018 13.8493 5.58007 11.8687L5.08739 8.91263L2.13134 8.41995C0.150679 8.08984 -0.162614 5.37331 1.6909 4.60101L11.1685 0.651997ZM12.1173 2.31866C12.2317 2.04392 11.9561 1.76829 11.6814 1.88277L2.20373 5.83178C1.58589 6.08921 1.69032 6.99472 2.35054 7.10476L5.30659 7.59743C5.86855 7.6911 6.30892 8.13146 6.40258 8.69343L6.89526 11.6495C7.00529 12.3097 7.91081 12.4141 8.16824 11.7963L12.1173 2.31866Z" fill="#23262F"/>
</svg>
