<svg width="16" height="16" viewBox="0 0 16 16" fill="none" xmlns="http://www.w3.org/2000/svg">
<path d="M8.66663 10.4883C9.06516 10.2578 9.33329 9.82685 9.33329 9.33333C9.33329 8.59695 8.73634 8 7.99996 8C7.26358 8 6.66663 8.59695 6.66663 9.33333C6.66663 9.82685 6.93476 10.2578 7.33329 10.4883V11.3333C7.33329 11.7015 7.63177 12 7.99996 12C8.36815 12 8.66663 11.7015 8.66663 11.3333V10.4883Z" fill="#FCFCFD"/>
<path fill-rule="evenodd" clip-rule="evenodd" d="M9.93698 4.16609C9.71492 3.30333 8.93095 2.66659 7.99995 2.66659C6.89538 2.66659 5.99995 3.56202 5.99995 4.66659V5.33325H11.3333C12.4379 5.33325 13.3333 6.22868 13.3333 7.33325V12.6666C13.3333 13.7712 12.4379 14.6666 11.3333 14.6666H4.66663C3.56206 14.6666 2.66663 13.7712 2.66663 12.6666V7.33325C2.66663 6.22869 3.56205 5.33326 4.66661 5.33325V4.66659C4.66661 2.82564 6.159 1.33325 7.99995 1.33325C9.55406 1.33325 10.8582 2.3962 11.2282 3.83375C11.32 4.19032 11.1053 4.55377 10.7488 4.64554C10.3922 4.73732 10.0288 4.52266 9.93698 4.16609ZM4.66663 6.66659C4.29844 6.66659 3.99996 6.96506 3.99996 7.33325V12.6666C3.99996 13.0348 4.29844 13.3333 4.66663 13.3333H11.3333C11.7015 13.3333 12 13.0348 12 12.6666V7.33325C12 6.96506 11.7015 6.66659 11.3333 6.66659H4.66663Z" fill="#FCFCFD"/>
</svg>
