<svg width="24" height="24" viewBox="0 0 24 24" fill="none" xmlns="http://www.w3.org/2000/svg">
<path d="M15.6111 2.96829C15.0369 2.39405 14.0597 2.44022 13.4285 3.0714L3.14286 13.3571C2.51168 13.9883 2.46552 14.9655 3.03975 15.5397L3.43688 15.9368C3.8307 16.3306 4.44186 16.4287 5.02655 16.3986C5.57465 16.3703 6.25753 16.4718 6.78194 16.9962C7.30635 17.5206 7.40779 18.2035 7.37952 18.7516C7.34936 19.3362 7.44747 19.9474 7.8413 20.3412L8.23844 20.7384C8.81267 21.3126 9.78985 21.2664 10.421 20.6353L20.7067 10.3496C21.3379 9.7184 21.3841 8.74122 20.8098 8.16698L20.4127 7.76984C20.0189 7.37602 19.4077 7.27791 18.823 7.30807C18.2749 7.33634 17.592 7.2349 17.0676 6.71049C16.5432 6.18608 16.4418 5.50319 16.47 4.95509C16.5002 4.37041 16.4021 3.75925 16.0083 3.36543L15.6111 2.96829Z" fill="#777E91"/>
<path d="M15.6111 3.46829C15.0369 2.89405 14.0597 2.94022 13.4285 3.5714L3.14286 13.8571C2.51168 14.4883 2.46552 15.4655 3.03975 16.0397L3.43688 16.4368C3.8307 16.8306 4.44186 16.9287 5.02655 16.8986C5.57465 16.8703 6.25753 16.9718 6.78194 17.4962C7.30635 18.0206 7.40779 18.7035 7.37952 19.2516C7.34936 19.8362 7.44747 20.4474 7.8413 20.8412L8.23844 21.2384C8.81267 21.8126 9.78985 21.7664 10.421 21.1353L20.7067 10.8496C21.3379 10.2184 21.3841 9.24122 20.8098 8.66698L20.4127 8.26984C20.0189 7.87602 19.4077 7.77791 18.823 7.80807C18.2749 7.83634 17.592 7.7349 17.0676 7.21049C16.5432 6.68608 16.4418 6.00319 16.47 5.45509C16.5002 4.87041 16.4021 4.25925 16.0083 3.86543L15.6111 3.46829Z" fill="#777E91"/>
</svg>
